<svg width="168" height="168" viewBox="0 0 168 168" fill="none" xmlns="http://www.w3.org/2000/svg">
<path d="M113.545 65.869C115.735 65.0429 117.889 64.1227 120 63.111C119.506 58.937 118.296 54.874 116.771 50.968C114.46 51.135 112.079 51.438 109.773 51.809C108.622 49.2949 107.235 46.8952 105.632 44.642C107.108 42.8208 108.512 40.9424 109.841 39.011C107.285 35.6896 104.308 32.7134 100.987 30.157C99.0594 31.4841 97.184 32.8855 95.365 34.358C93.111 32.7492 90.708 31.3602 88.189 30.21C88.56 27.908 88.867 25.532 89.029 23.227C85.124 21.704 81.058 20.497 76.891 20C75.873 22.143 74.956 24.244 74.125 26.464C71.3791 26.1999 68.6144 26.1972 65.868 26.456C65.0411 24.2648 64.1189 22.1107 63.104 20C58.94 20.497 54.871 21.704 50.964 23.223C51.131 25.535 51.436 27.918 51.808 30.227C49.2949 31.3782 46.8962 32.7643 44.644 34.367C42.8222 32.8905 40.9431 31.486 39.011 30.157C35.6889 32.7136 32.7118 35.6897 30.154 39.011C31.4819 40.9397 32.8846 42.8158 34.359 44.635C32.7516 46.8884 31.3626 49.2899 30.211 51.807C27.907 51.437 25.531 51.135 23.225 50.968C21.704 54.874 20.491 58.938 20 63.111C22.144 64.13 24.244 65.045 26.464 65.872C26.1995 68.6188 26.1965 71.3846 26.455 74.132C24.2639 74.9565 22.1101 75.8771 20 76.891C20.491 81.062 21.704 85.125 23.224 89.034C25.535 88.868 27.917 88.561 30.224 88.188C31.3758 90.7025 32.7626 93.1025 34.366 95.356C32.8863 97.1764 31.4808 99.056 30.153 100.99C32.7129 104.31 35.6897 107.287 39.01 109.846C40.9378 108.518 42.8129 107.115 44.631 105.64C46.8844 107.249 49.2871 108.638 51.806 109.788C51.434 112.089 51.131 114.467 50.964 116.777C54.871 118.295 58.94 119.506 63.104 120C64.1187 117.886 65.0419 115.729 65.871 113.536C68.6169 113.8 71.3816 113.803 74.128 113.545C74.9571 115.735 75.879 117.888 76.891 120C81.058 119.507 85.124 118.295 89.03 116.777C88.867 114.463 88.561 112.08 88.188 109.775C90.703 108.623 93.1036 107.235 95.358 105.632C97.1791 107.109 99.0572 108.514 100.988 109.845C104.308 107.286 107.283 104.309 109.842 100.989C108.518 99.059 107.116 97.1832 105.641 95.366C107.25 93.1115 108.64 90.7082 109.791 88.189C112.09 88.566 114.467 88.867 116.771 89.033C118.295 85.125 119.505 81.061 120 76.89C117.886 75.8762 115.73 74.9544 113.536 74.127C113.8 71.3808 113.803 68.6158 113.545 65.869ZM88.465 97.387V83.232C88.465 76.028 81.483 70.19 74.279 70.19L70.253 75.108L74.281 93.735L69.783 98.328L65.286 93.735L69.313 75.108L65.286 70.187C58.082 70.187 51.101 76.027 51.101 83.231V96.926C42.663 90.956 37.153 81.121 37.153 69.999C37.153 51.795 51.91 37.037 70.115 37.037C88.319 37.037 103.076 51.795 103.076 69.999C103.078 81.413 97.278 91.47 88.465 97.387ZM80.814 57.584C80.814 63.677 75.875 68.615 69.782 68.615C63.69 68.615 58.75 63.677 58.75 57.584C58.75 51.491 63.689 46.553 69.782 46.553C75.875 46.553 80.814 51.491 80.814 57.584Z" fill="black"/>
<g clip-path="url(#clip0_201_9)">
<path d="M0 69.914C0 108.474 31.371 139.811 69.8968 139.811C87.6462 139.811 103.882 133.138 116.231 122.199L160.776 166.744C161.602 167.57 162.668 167.983 163.769 167.983C164.87 167.983 165.936 167.57 166.762 166.744C168.413 165.093 168.413 162.445 166.762 160.794L122.182 116.248C133.12 103.899 139.794 87.6978 139.794 69.914C139.794 31.3538 108.423 0.0171967 69.8968 0.0171967C31.371 0.0171967 0 31.3538 0 69.914ZM131.366 69.914C131.366 103.796 103.779 131.383 69.8968 131.383C36.0147 131.383 8.42752 103.796 8.42752 69.914C8.42752 36.0319 36.0147 8.44472 69.8968 8.44472C103.779 8.44472 131.366 35.9975 131.366 69.914Z" fill="black"/>
</g>
<defs>
<clipPath id="clip0_201_9">
<rect width="168" height="168" fill="white"/>
</clipPath>
</defs>
</svg>
